<svg version="1.2" xmlns="http://www.w3.org/2000/svg" viewBox="0 0 67 70" width="40" height="42">
	<title>kle-logo-footer-new-svg</title>
	<defs>
		<clipPath clipPathUnits="userSpaceOnUse" id="cp1">
			<path d="m5.1 0h56v56h-56z"/>
		</clipPath>
	</defs>
	<style>
		.s0 { fill: none;stroke: #fdd615 } 
		.s1 { fill: #000000 } 
		.s2 { fill: #fdd716;stroke: #fdd716 } 
		.s3 { fill: #fdd716;stroke: #fdd716;stroke-width: .5 } 
		.s4 { fill: none } 
		.s5 { fill: #fdd716 } 
	</style>
	<g id="Group_8319">
		<g id="Group_8318">
			<g id="Group_8311">
				<g id="Group_8312">
				</g>
			</g>
			<g id="Clip-Path: Mask_Group_12" clip-path="url(#cp1)">
				<g id="Mask_Group_12">
					<g id="Group_8316">
						<g id="Group_8316-2">
							<path id="Path_3903-2" fill-rule="evenodd" class="s0" d="m22.3 13.2c-1.2 3.8-1 3-1 3"/>
							<g id="Group_8315">
								<g id="Group_8316-3">
									<path id="kle-logo_sarı" class="s1" d="m26.8 68.5h53.3v53.1h-53.3z"/>
									<path id="Path_3903-3" class="s2" d="m20.6 9c0.1-0.3 0.8-1.2 1.4-1.1 0.3 0 1.1 0.8 1.3 2.3q0 0.5 0 1 0 0.4-0.1 0.9-0.1 0.4-0.2 0.9-0.1 0.4-0.2 0.9-0.1 0.2-0.1 0.4-0.1 0.2-0.1 0.4-0.1 0.2-0.2 0.4-0.1 0.2-0.1 0.4-0.7 1.5-1.3 3-0.6 1.5-1.1 3-0.5 1.5-1 3-0.5 1.6-1 3.1l7.2-9.4c0 0 1.5-2.2 2.5-1.4 1.1 0.8-1.9 6.2-1.9 6.2l-9.9 14.7q-0.5 0.7-0.9 1.5-0.4 0.8-0.7 1.6-0.3 0.8-0.4 1.7-0.2 0.8-0.2 1.7c-0.1 1.3 0.5 1.6 1.2 2.4q0.1 0.1 0.1 0.1 0.1 0.1 0.2 0.2 0.1 0.1 0.1 0.1 0.1 0.1 0.2 0.1 0.6 0.4 1.3 0.7 0.7 0.3 1.3 0.6 0.7 0.2 1.4 0.5 0.7 0.2 1.4 0.4c1.8 0.6 3.5 0.9 5.1 1.5q0.6 0.3 1.2 0.5 0.6 0.3 1.2 0.6 0.5 0.3 1.1 0.7 0.5 0.4 1 0.8c0.2 0.1-2.2-0.5-5.3-0.9-2.4-0.3-5.6-0.5-6.6-0.5q-0.9-0.2-1.8-0.4-0.9-0.3-1.8-0.6-0.9-0.3-1.7-0.7-0.9-0.5-1.7-1c-1.5-1 2.9 1.9-1.2 2.2-4.1 0.3-2.1-5.3-2.1-5.3q0.1-0.7 0.3-1.3 0.1-0.7 0.3-1.4 0.2-0.7 0.3-1.4 0.2-0.7 0.4-1.4c1-3.3 2.6-8.1 3.5-10.2 0.7-1.8 3-7.2 4.8-12.6 1.6-4.4 2.6-8.7 2.8-8.9z"/>
									<path id="Path_3904" class="s3" d="m36.8 6.2c0 0 1.3-4.1 2.4-3.9 1 0.2 1.7 3.8 0.4 8.3-0.9 3.2-4.2 17-5.7 27.5q-0.2 1.1-0.3 2.3-0.1 1.1-0.2 2.2 0 1.1 0 2.2 0 1.1 0 2.2c0.4 7.4 2.4 6.2 3.3 8.2 0.1 0.4 0 0.4-0.8 0.5-1.1 0.2-6-2.1-5.6-7.2 0.2-2.9 0.6-7.8 1.2-12.8 0.6-4.9 1.2-9.5 1.2-9.5l1-5.3z"/>
									<g id="Path_3905">
										<path fill-rule="evenodd" class="s4" d="m60.1 47.1c-0.4 0.3-1.6 0.9-3.3 1.7q-1.7 1-3.6 1.7-1.9 0.6-3.9 1-2 0.4-4 0.4-2 0.1-4-0.2-0.6-0.1-1.2-0.3-0.6-0.2-1.2-0.5-0.5-0.3-0.9-0.8-0.4-0.4-0.8-1c-1-1.4-0.9-4 0.3-6.8q0.2-0.4 0.4-0.7 0.2-0.3 0.3-0.6 0.2-0.3 0.4-0.6 0.2-0.3 0.4-0.6 0.5-0.8 1.1-1.5 0.6-0.7 1.2-1.4 0.6-0.6 1.3-1.3 0.6-0.6 1.4-1.2c1.5-1.1 4.6-3.6 8.4-1.4q0.2 0.1 0.5 0.3 0.2 0.2 0.4 0.3 0.2 0.2 0.4 0.4 0.2 0.2 0.4 0.4c4.3 4.8-8 10.8-8 10.8q-0.7 0.2-1.4 0.4-0.7 0.2-1.4 0.3-0.7 0.1-1.4 0.2-0.7 0.2-1.5 0.2c-0.9-0.2 1.2 2.4 6.3 1.9 5.1-0.4 4.7-0.4 7.8-0.8 0.3-0.1 3.1-0.2 3.8-0.3 2.2-0.5 3.2-0.9 1.8 0z"/>
										<path fill-rule="evenodd" class="s5" d="m44.7 51.9q-1.7 0-3.4-0.2c-1.7-0.1-3.2-1.1-4.1-2.6-0.9-1.4-0.9-4 0.3-6.8q0.7-1.3 1.5-2.5c1.4-2 3-3.8 5-5.4 1.5-1.1 4.6-3.6 8.4-1.4q1 0.6 1.7 1.4c4.3 4.8-8 10.8-8 10.8q-2.8 0.8-5.7 1.1 0 0-0.1 0c-0.6 0 1.1 2 5.2 2q0.6 0 1.2-0.1c5.1-0.4 4.7-0.4 7.8-0.8 0.3-0.1 3.1-0.2 3.7-0.3 2.3-0.5 3.3-0.9 1.9 0-0.4 0.3-1.6 0.9-3.3 1.8-3.7 2-7.9 3-12.1 3zm-4.3-8.6q2.3-0.2 4.6-0.9c0.5-0.3 2.2-1.2 3.8-2.4 2.9-2.1 3.2-3.3 3.2-3.4q0 0-0.1-0.2h-0.1q-0.4-0.5-0.9-0.8-0.8-0.5-1.6-0.5c-1.2 0-2.5 1-3.4 1.6q-0.1 0.1-0.1 0.1-2.5 2-4.3 4.7-0.6 0.9-1.1 1.8z"/>
									</g>
								</g>
								<g id="Group_8317">
									<g id="Path_3906">
										<path fill-rule="evenodd" class="s4" d="m41.3 42.5q0.2-0.6 0.4-1.1 0.2-0.5 0.5-0.9 0.3-0.5 0.6-1 0.3-0.4 0.7-0.8 0.3-0.5 0.7-0.9 0.4-0.4 0.8-0.7 0.4-0.4 0.9-0.7 0.5-0.3 1-0.5c2.5-0.8 4.5-1.4 4.7 0.1 0.2 1.5-1.4 4.6-4 6.1 0.2-0.1 0.3-0.1 0.2 0q-0.7 0.3-1.4 0.6-0.7 0.3-1.4 0.4-0.7 0.2-1.5 0.3-0.7 0.1-1.5 0.1c-1-0.2-0.7-1-0.7-1z"/>
										<path fill-rule="evenodd" class="s5" d="m41.9 44.5h-0.1c-1-0.2-1.3-0.8-1.5-1.2-0.1-0.4-0.1-0.8 0-0.9v-0.1-0.2q0.9-2.2 2.4-4.1c1-1.3 2.3-2.3 3.7-3h0.1l0.1-0.1c1.4-0.4 2.7-0.8 3.7-0.8 1.8 0 2.2 1.3 2.3 1.8 0.3 1.8-1.4 5.1-4 6.8q-0.2 0.1-0.3 0.2-0.1 0.1-0.1 0.1c-1.9 1-4 1.5-6.2 1.5zm0.1-1c2 0 4-0.5 5.7-1.4q0 0-0.1 0c2.6-1.5 4.2-4.6 4-6.1-0.2-1.5-2.2-0.9-4.7-0.1-1.4 0.6-2.5 1.6-3.4 2.8-1 1.1-1.7 2.4-2.2 3.8 0 0-0.3 0.8 0.7 1zm5.7-1.4q0.2-0.1 0.2-0.1 0 0-0.1 0.1-0.1 0-0.1 0z"/>
									</g>
								</g>
								<g id="Group_8317-2">
									<g id="Path_3906-2">
										<path fill-rule="evenodd" class="s4" d="m41.3 42.5q0.2-0.6 0.4-1.1 0.2-0.5 0.5-0.9 0.3-0.5 0.6-1 0.3-0.4 0.7-0.8 0.3-0.5 0.7-0.9 0.4-0.4 0.8-0.7 0.4-0.4 0.9-0.7 0.5-0.3 1-0.5c2.5-0.8 4.5-1.4 4.7 0.1 0.2 1.5-1.4 4.6-4 6.1 0.2-0.1 0.3-0.1 0.2 0q-0.7 0.3-1.4 0.6-0.7 0.3-1.4 0.4-0.7 0.2-1.5 0.3-0.7 0.1-1.5 0.1c-1-0.2-0.7-1-0.7-1z"/>
										<path fill-rule="evenodd" class="s5" d="m42 43.5c-1-0.2-0.7-1-0.7-1 0.5-1.4 1.2-2.7 2.2-3.8 0.9-1.2 2-2.2 3.4-2.8 2.5-0.8 4.5-1.4 4.7 0.1 0.2 1.5-1.4 4.6-4 6.1q0.1 0 0.1 0c-1.8 0.9-3.7 1.4-5.7 1.4zm0.1-0.5c1.8 0 3.6-0.4 5.3-1.3 1.1-0.6 2.1-1.7 2.8-2.9 0.7-1 1-2.1 0.9-2.7 0-0.3-0.1-0.5-0.8-0.5-0.8 0-2 0.4-3.3 0.8-1.2 0.6-2.3 1.5-3.1 2.6q-1.4 1.6-2.1 3.6 0 0 0 0c-0.1 0-0.1 0.1 0 0.2 0 0.1 0.2 0.2 0.3 0.2zm5.6-0.9q0 0 0.1 0 0.1-0.1 0.1-0.1 0 0-0.2 0.1z"/>
									</g>
								</g>
								<g id="Group_8317-3">
									<g id="Path_3906-3">
										<path fill-rule="evenodd" class="s4" d="m41.3 42.5q0.2-0.6 0.4-1.1 0.2-0.5 0.5-0.9 0.3-0.5 0.6-1 0.3-0.4 0.7-0.8 0.3-0.5 0.7-0.9 0.4-0.4 0.8-0.7 0.4-0.4 0.9-0.7 0.5-0.3 1-0.5c2.5-0.8 4.5-1.4 4.7 0.1 0.2 1.5-1.4 4.6-4 6.1 0.2-0.1 0.3-0.1 0.2 0q-0.7 0.3-1.4 0.6-0.7 0.3-1.4 0.4-0.7 0.2-1.5 0.3-0.7 0.1-1.5 0.1c-1-0.2-0.7-1-0.7-1z"/>
										<path fill-rule="evenodd" class="s5" d="m41.9 44.5h-0.1c-1-0.2-1.3-0.8-1.5-1.2-0.1-0.4-0.1-0.7 0-0.9v-0.1-0.2q0.9-2.2 2.4-4.1c1-1.3 2.3-2.3 3.7-3h0.1l0.1-0.1c1.4-0.4 2.7-0.8 3.7-0.8 1.8 0 2.2 1.3 2.3 1.8 0.3 1.8-1.4 5.1-4 6.8q-0.2 0.2-0.3 0.2-0.1 0.1-0.1 0.1c-1.9 1-4 1.5-6.2 1.5zm0.1-1c2 0 4-0.5 5.7-1.4q0 0-0.1 0c2.6-1.5 4.2-4.6 4-6.1-0.2-1.5-2.2-0.9-4.7-0.1-1.4 0.6-2.5 1.6-3.4 2.8-1 1.1-1.7 2.4-2.2 3.8 0 0-0.3 0.8 0.7 1zm5.7-1.4q0.2-0.1 0.2-0.1 0 0-0.1 0.1-0.1 0-0.1 0z"/>
									</g>
								</g>
							</g>
						</g>
					</g>
				</g>
			</g>
		</g>
	</g>
</svg>